<svg width="25" height="24" viewBox="0 0 25 24" fill="none" xmlns="http://www.w3.org/2000/svg">
<path d="M12.5 22C17.4706 22 21.5 17.9706 21.5 13C21.5 8.02944 17.4706 4 12.5 4C7.52944 4 3.5 8.02944 3.5 13C3.5 17.9706 7.52944 22 12.5 22Z" stroke="#2E8BC9" stroke-width="1.5" stroke-linecap="round"/>
<path d="M5.5 19L3.5 21M19.5 19L21.5 21" stroke="#2E8BC9" stroke-width="1.5" stroke-linecap="round" stroke-linejoin="round"/>
<path d="M19.5 3.5697L20.0955 3.27195C20.9408 2.84932 21.2583 2.89769 21.9303 3.5697C22.6023 4.2417 22.6507 4.55924 22.228 5.4045L21.9303 6M5.5 3.5697L4.9045 3.27195C4.05924 2.84932 3.7417 2.89769 3.0697 3.5697C2.39769 4.2417 2.34932 4.55924 2.77195 5.4045L3.0697 6" stroke="#2E8BC9" stroke-width="1.5" stroke-linecap="round"/>
<path d="M12.5 9.5V13.5L14.5 15.5" stroke="#2E8BC9" stroke-width="1.5" stroke-linecap="round" stroke-linejoin="round"/>
<path d="M12.5 3.5V2" stroke="#2E8BC9" stroke-width="1.5" stroke-linecap="round" stroke-linejoin="round"/>
<path d="M10.5 2H14.5" stroke="#2E8BC9" stroke-width="1.5" stroke-linecap="round" stroke-linejoin="round"/>
</svg>
