<svg width="24" height="24" viewBox="0 0 24 24" fill="none" xmlns="http://www.w3.org/2000/svg">
<path d="M21 12V14C21 17.7712 20.9997 19.6566 19.8281 20.8281C18.6566 21.9997 16.7712 22 13 22H11C7.22878 22 5.34346 21.9997 4.17188 20.8281C3.00031 19.6566 3 17.7712 3 14V12C3 11.5581 3.00007 11.142 3.00195 10.75H20.998C20.9999 11.142 21 11.5581 21 12ZM13 4C13.7355 4 14.3993 4.00203 15 4.01074V6C15 6.55228 15.4477 7 16 7C16.5523 7 17 6.55228 17 6V4.10254C18.2999 4.23052 19.175 4.51873 19.8281 5.17188C20.6717 6.01541 20.9065 7.22887 20.9727 9.25H3.02734C3.09348 7.22885 3.32834 6.01541 4.17188 5.17188C4.82502 4.51873 5.70009 4.23052 7 4.10254V6C7 6.55228 7.44772 7 8 7C8.55228 7 9 6.55228 9 6V4.01074C9.60074 4.00203 10.2645 4 11 4H13Z" fill="#3D3D3D"/>
<path d="M16 2V6M8 2V6" stroke="#3D3D3D" stroke-width="1.5" stroke-linecap="round" stroke-linejoin="round"/>
</svg>
