<svg width="24" height="24" viewBox="0 0 24 24" fill="none" xmlns="http://www.w3.org/2000/svg">
<path d="M12 2C17.5221 2 21.9998 6.28341 22 11.5664C22 16.8496 17.5222 21.1338 12 21.1338C11.3507 21.1347 10.7032 21.0738 10.0654 20.9541C9.60664 20.8679 9.37703 20.8252 9.2168 20.8496C9.05654 20.8741 8.82916 20.9947 8.375 21.2363C7.0902 21.9196 5.59215 22.1605 4.15137 21.8926C4.69879 21.2191 5.07229 20.4111 5.2373 19.5449C5.3373 19.0149 5.08986 18.4999 4.71875 18.123C3.03325 16.4115 2 14.1048 2 11.5664C2.00017 6.28341 6.47788 2 12 2ZM8 11C7.44772 11 7 11.4477 7 12C7 12.5523 7.44772 13 8 13H8.00879C8.56107 13 9.00879 12.5523 9.00879 12C9.00879 11.4477 8.56107 11 8.00879 11H8ZM11.9951 11C11.443 11.0002 10.9951 11.4478 10.9951 12C10.9951 12.5522 11.443 12.9998 11.9951 13H12.0049L12.1064 12.9951C12.6109 12.9441 13.0049 12.5179 13.0049 12C13.0049 11.4821 12.6109 11.0559 12.1064 11.0049L12.0049 11H11.9951ZM15.9912 11C15.4389 11 14.9912 11.4477 14.9912 12C14.9912 12.5523 15.4389 13 15.9912 13H16C16.5523 13 17 12.5523 17 12C17 11.4477 16.5523 11 16 11H15.9912Z" fill="white"/>
</svg>
