<svg width="24" height="25" viewBox="0 0 24 25" fill="none" xmlns="http://www.w3.org/2000/svg">
<path d="M13.833 21.417V21.583H10.167V21.417H13.833ZM4.08203 20.8867C4.51386 21.0975 5.02783 21.2275 5.67285 21.3037C6.49344 21.4007 7.51619 21.4131 8.83301 21.415V21.582C7.51657 21.5801 6.48409 21.5679 5.65332 21.4697C4.98025 21.3902 4.4357 21.2512 3.97363 21.0186L4.08203 20.8867ZM20.0254 21.0186C19.5635 21.2509 19.0193 21.3903 18.3467 21.4697C17.5158 21.5679 16.4835 21.5801 15.167 21.582V21.415C16.4838 21.4131 17.5066 21.4007 18.3271 21.3037C18.9717 21.2275 19.4853 21.0973 19.917 20.8867L20.0254 21.0186ZM2.08398 14.667C2.08591 15.9838 2.09929 17.0066 2.19629 17.8271C2.27247 18.4715 2.40182 18.9854 2.6123 19.417L2.48047 19.5254C2.24825 19.0636 2.11075 18.5191 2.03125 17.8467C1.93305 17.0158 1.91987 15.9835 1.91797 14.667H2.08398ZM22.082 14.667C22.0801 15.9835 22.0679 17.0158 21.9697 17.8467C21.8902 18.5193 21.7509 19.0635 21.5186 19.5254L21.3867 19.417C21.5973 18.9853 21.7275 18.4717 21.8037 17.8271C21.9007 17.0066 21.9141 15.9838 21.916 14.667H22.082ZM22.083 12.667V13.333H21.917V12.667H22.083ZM2.08301 12.667V13.333H1.91699V12.667H2.08301ZM22.0312 9.97266C22.0688 10.3305 22.0796 10.763 22.082 11.333H21.915C21.9125 10.7791 21.9027 10.363 21.8691 10.0225L22.0312 9.97266ZM2.12988 10.0225C2.09633 10.363 2.08746 10.7791 2.08496 11.333H1.91797C1.92044 10.7631 1.93025 10.3305 1.96777 9.97266L2.12988 10.0225ZM4.24219 7.00098C3.49004 7.3788 2.87895 7.98916 2.50098 8.74121L2.33984 8.69238C2.73707 7.88795 3.38883 7.23691 4.19336 6.83984L4.24219 7.00098ZM6.43164 6.58887C6.0699 6.59414 5.77534 6.60496 5.52246 6.62988L5.47266 6.46777C5.68236 6.44578 5.91776 6.43572 6.19141 6.42871L6.43164 6.58887ZM9.14648 4.25293C9.12704 4.27574 9.10674 4.29877 9.08691 4.32324C8.9838 4.4505 8.87502 4.59906 8.75391 4.77441L8.61621 4.68164C8.73948 4.50314 8.85048 4.34927 8.95703 4.21777C8.99206 4.17455 9.02796 4.13463 9.0625 4.0957L9.14648 4.25293ZM13.0264 3.41895C13.2434 3.42249 13.433 3.43057 13.6016 3.44629C13.6566 3.45143 13.7095 3.45873 13.7607 3.46582L13.6768 3.62305C13.6472 3.61955 13.617 3.61521 13.5859 3.6123C13.423 3.59711 13.2392 3.58944 13.0264 3.58594V3.41895ZM10.9736 3.58594C10.7608 3.58944 10.5769 3.59712 10.4141 3.6123C10.3826 3.61524 10.3521 3.61951 10.3223 3.62305L10.2383 3.46582C10.2898 3.45867 10.343 3.45146 10.3984 3.44629C10.567 3.43057 10.7567 3.42249 10.9736 3.41895V3.58594Z" fill="#7C7C7C" stroke="#7C7C7C" stroke-width="1.33333"/>
<path d="M16 13.5C16 15.7091 14.2091 17.5 12 17.5C9.79086 17.5 8 15.7091 8 13.5C8 11.2909 9.79086 9.5 12 9.5C14.2091 9.5 16 11.2909 16 13.5Z" stroke="#7C7C7C" stroke-width="2" stroke-linecap="round" stroke-linejoin="round"/>
<path d="M17.9737 3.52148C17.9795 3.49284 18.0205 3.49284 18.0263 3.52148C18.3302 5.00808 19.4919 6.16984 20.9785 6.47368C21.0072 6.47954 21.0072 6.52046 20.9785 6.52632C19.4919 6.83016 18.3302 7.99192 18.0263 9.47852C18.0205 9.50716 17.9795 9.50716 17.9737 9.47852C17.6698 7.99192 16.5081 6.83016 15.0215 6.52632C14.9928 6.52046 14.9928 6.47954 15.0215 6.47368C16.5081 6.16984 17.6698 5.00808 17.9737 3.52148Z" stroke="#7C7C7C" stroke-width="2" stroke-linecap="round" stroke-linejoin="round"/>
</svg>
