<svg width="16" height="16" viewBox="0 0 16 16" fill="none" xmlns="http://www.w3.org/2000/svg">
<path d="M13 3.66797L12.5869 10.3514C12.4813 12.0589 12.4285 12.9127 12.0005 13.5266C11.7889 13.83 11.5165 14.0862 11.2005 14.2786C10.5614 14.668 9.706 14.668 7.99513 14.668C6.28208 14.668 5.42553 14.668 4.78603 14.2779C4.46987 14.0851 4.19733 13.8285 3.98579 13.5245C3.55792 12.9097 3.5063 12.0547 3.40307 10.3448L3 3.66797" stroke="#3D3D3D" stroke-linecap="round"/>
<path d="M2 3.66536H14M10.7038 3.66536L10.2487 2.72652C9.9464 2.10287 9.7952 1.79104 9.53447 1.59657C9.47667 1.55343 9.4154 1.51506 9.35133 1.48183C9.0626 1.33203 8.71607 1.33203 8.023 1.33203C7.31253 1.33203 6.95733 1.33203 6.66379 1.48811C6.59873 1.5227 6.53665 1.56263 6.47819 1.60748C6.21443 1.80983 6.06709 2.13306 5.77241 2.77954L5.36861 3.66536" stroke="#3D3D3D" stroke-linecap="round"/>
<path d="M6.33325 11V7" stroke="#3D3D3D" stroke-linecap="round"/>
<path d="M9.66675 11V7" stroke="#3D3D3D" stroke-linecap="round"/>
</svg>
