<svg width="20" height="20" viewBox="0 0 20 20" fill="none" xmlns="http://www.w3.org/2000/svg">
<path d="M19.6669 10.2362C19.6669 9.57024 19.6024 8.88278 19.495 8.23828H10.1927V12.0408H15.5206C15.3058 13.2654 14.5968 14.3395 13.5441 15.027L16.7237 17.4976C18.5927 15.7574 19.6669 13.2224 19.6669 10.2362Z" fill="#4280EF"/>
<path d="M10.1927 19.8609C12.8566 19.8609 15.0909 18.9801 16.7236 17.4763L13.5441 15.0272C12.6632 15.6287 11.5246 15.9725 10.1927 15.9725C7.61467 15.9725 5.44486 14.2323 4.64998 11.9121L1.38452 14.4257C3.06022 17.7556 6.45458 19.8609 10.1927 19.8609Z" fill="#34A353"/>
<path d="M4.64993 11.8903C4.24174 10.6658 4.24174 9.33379 4.64993 8.10925L1.38447 5.57422C-0.0119451 8.36705 -0.0119451 11.654 1.38447 14.4253L4.64993 11.8903Z" fill="#F6B704"/>
<path d="M10.1927 4.049C11.5891 4.02752 12.964 4.5646 13.9737 5.53135L16.788 2.69556C15.0049 1.01986 12.6418 0.117564 10.1927 0.139047C6.45458 0.139047 3.06022 2.24441 1.38452 5.57432L4.64998 8.10934C5.44486 5.76767 7.61467 4.049 10.1927 4.049Z" fill="#E54335"/>
</svg>
