<svg width="168" height="167" viewBox="0 0 168 167" fill="none" xmlns="http://www.w3.org/2000/svg">
<g clip-path="url(#clip0_374_1015)">
<path d="M84 1.5C93.4067 1.5 101.861 5.56961 107.701 12.0488C110.241 14.8655 113.979 16.4139 117.766 16.2178C126.477 15.7666 135.332 18.8665 141.983 25.5176C148.634 32.1687 151.734 41.0242 151.283 49.7354C151.087 53.5225 152.635 57.2597 155.451 59.7988C161.93 65.6395 166 74.094 166 83.5C166 92.906 161.93 101.36 155.451 107.2V107.201C152.723 109.661 151.184 113.246 151.27 116.91L151.283 117.265C151.734 125.976 148.635 134.832 141.983 141.482L141.982 141.483C135.539 147.927 127.028 151.038 118.582 150.815L117.765 150.783C113.978 150.587 110.241 152.135 107.701 154.951H107.7C101.86 161.43 93.406 165.5 84 165.5C74.5933 165.5 66.1395 161.431 60.2988 154.951C57.7597 152.135 54.0218 150.586 50.2344 150.782C41.5232 151.233 32.6678 148.133 26.0166 141.482C19.3654 134.831 16.2655 125.976 16.7168 117.265C16.9129 113.477 15.3643 109.74 12.5479 107.2C6.06915 101.36 2 92.9059 2 83.5C2 74.0932 6.06975 65.6396 12.5488 59.7988C15.3653 57.2597 16.9129 53.5224 16.7168 49.7354C16.2654 41.0239 19.3662 32.1679 26.0176 25.5166C32.6688 18.8654 41.5241 15.7654 50.2354 16.2168C54.0226 16.413 57.7596 14.8645 60.2988 12.0479C66.1396 5.56893 74.594 1.5 84 1.5Z" stroke="#2E8BC9" stroke-width="3"/>
<path d="M114.88 20.4521C111.823 20.6105 108.798 19.3576 106.747 17.0831C101.144 10.8668 93.0281 6.95898 83.9997 6.95898C74.9719 6.95898 66.8564 10.8664 61.2527 17.0825C59.2025 19.3567 56.1778 20.6096 53.1199 20.4511C44.7621 20.018 36.2605 22.9934 29.8767 29.3773C23.4929 35.7611 20.5175 44.2626 20.9506 52.6205C21.109 55.6784 19.8561 58.7032 17.5818 60.7534C11.3656 66.3571 7.45801 74.4722 7.45801 83.5006C7.45801 92.5284 11.3655 100.644 17.5815 106.247C19.8557 108.298 21.1085 111.322 20.9501 114.38C20.5171 122.738 23.4925 131.24 29.8763 137.623C36.26 144.007 44.7614 146.982 53.1192 146.549C56.1771 146.391 59.2019 147.644 61.2521 149.918C66.8558 156.135 74.9712 160.042 83.9997 160.042C93.0274 160.042 101.143 156.135 106.746 149.919C108.797 147.645 111.822 146.391 114.879 146.55C123.238 146.984 131.739 144.008 138.123 137.624C144.507 131.24 147.482 122.739 147.049 114.38C146.89 111.323 148.144 108.298 150.418 106.247C156.634 100.644 160.541 92.5284 160.541 83.5006C160.541 74.4729 156.634 66.3573 150.418 60.7537C148.144 58.7034 146.89 55.6789 147.049 52.621C147.482 44.2633 144.507 35.762 138.123 29.3782C131.739 22.9945 123.238 20.0191 114.88 20.4521Z" fill="#2E8BC9"/>
<path fill-rule="evenodd" clip-rule="evenodd" d="M116.683 57.302C119.622 59.7774 119.998 64.1671 117.523 67.1066L82.3647 108.857C81.0774 110.386 79.1952 111.287 77.1968 111.331C75.199 111.376 73.2778 110.559 71.9244 109.089L51.4154 86.822C48.8119 83.9955 48.9928 79.5929 51.8194 76.9898C54.6461 74.386 59.0482 74.5669 61.6517 77.3934L76.8085 93.8499L106.878 58.1424C109.353 55.2029 113.743 54.8266 116.683 57.302Z" fill="white"/>
</g>
<defs>
<clipPath id="clip0_374_1015">
<rect width="167" height="167" fill="white" transform="translate(0.5)"/>
</clipPath>
</defs>
</svg>
