<svg width="24" height="24" viewBox="0 0 24 24" fill="none" xmlns="http://www.w3.org/2000/svg">
<path d="M12.0001 2C13.3831 2 14.5823 2.86628 16.9796 4.59961L18.4191 5.64062C20.3461 7.03389 21.3099 7.73089 21.7443 8.74902C22.1786 9.76727 22.0016 10.9166 21.6486 13.2139L21.3478 15.1729C20.8473 18.429 20.5967 20.057 19.4288 21.0283C18.2609 21.9996 16.5535 22 13.1388 22H10.8615C7.44659 22 5.73933 21.9997 4.57142 21.0283C3.40359 20.057 3.15286 18.429 2.65247 15.1729L2.35169 13.2139C1.99867 10.9166 1.82168 9.76727 2.25599 8.74902C2.69032 7.73084 3.65416 7.03393 5.58118 5.64062L7.02161 4.59961C9.41854 2.86655 10.6172 2.00006 12.0001 2ZM9.39759 16.3643C9.07565 16.1625 8.64682 16.2329 8.40833 16.5391C8.16978 16.8456 8.20653 17.2794 8.48157 17.542L8.53919 17.5918L8.7179 17.7246C9.62519 18.3708 10.7682 18.75 12.0001 18.75C13.3141 18.75 14.5275 18.3186 15.4611 17.5918C15.7878 17.3373 15.8463 16.8659 15.5919 16.5391C15.3374 16.2124 14.866 16.1538 14.5392 16.4082C13.8738 16.9261 12.9864 17.25 12.0001 17.25C11.1371 17.25 10.3499 17.0017 9.72083 16.5928L9.46107 16.4082L9.39759 16.3643Z" fill="#3D3D3D"/>
</svg>
