<svg width="20" height="20" viewBox="0 0 20 20" fill="none" xmlns="http://www.w3.org/2000/svg">
<path d="M10.4166 1.66602C6.50463 1.66602 3.33331 4.68087 3.33331 8.39993C3.33331 10.5264 4.21873 12.1799 5.98956 13.6568C7.23775 14.6978 8.7499 16.4269 9.65773 17.8286C10.0931 18.5007 10.7089 18.5007 11.1756 17.8286C12.1294 16.4548 13.5956 14.6978 14.8437 13.6568C16.6146 12.1799 17.5 10.5264 17.5 8.39993C17.5 4.68087 14.3286 1.66602 10.4166 1.66602Z" stroke="#3D75E6" stroke-width="1.25" stroke-linejoin="round"/>
<path d="M8.75 5.83398V8.33398M8.75 8.33398V10.834M8.75 8.33398H12.0833M12.0833 5.83398V8.33398M12.0833 8.33398V10.834" stroke="#3D75E6" stroke-width="1.25" stroke-linecap="round"/>
</svg>
