<?xml version="1.0" encoding="UTF-8"?>
<svg id="Layer_1" data-name="Layer 1" xmlns="http://www.w3.org/2000/svg" viewBox="0 0 1080 1080">
  <defs>
    <style>
      .cls-1 {
        fill: #5eabde;
      }
    </style>
  </defs>
  <path class="cls-1" d="M785.1,177.3c-21.04-11.14-47.5-7.22-67.51,9.95-13.25,11.04-24.54,26.9-34.49,48.54-11.26,24.49-24.71,48.52-37.72,71.77-1.7,3.04-3.4,6.1-5.13,9.19l-26-45.45c-7.39-12.94-15.78-27.6-29.26-38.52-11.26-9.14-23.91-13.5-36.11-13.23h-.05c-12.21-.27-24.85,4.09-36.11,13.23-13.47,10.92-21.86,25.58-29.26,38.52l-26,45.45c-1.73-3.09-3.43-6.15-5.13-9.19-13.01-23.25-26.46-47.28-37.72-71.77-9.95-21.64-21.23-37.5-34.49-48.54-20.02-17.17-46.47-21.09-67.51-9.95-19.8,10.48-31.18,32.86-29.72,58.39,1.17,20.43,9.56,38.79,16.98,55.01l57.08,124.71c3.28,7.15,11.75,10.31,18.92,7.03,7.15-3.28,10.31-11.75,7.03-18.9l-57.08-124.71c-6.69-14.59-13.59-29.69-14.45-44.77-.32-5.42-.17-23.74,14.59-31.57,12.87-6.81,27.24-.78,35.63,6.44l.22.19c9.95,8.24,18.73,20.84,26.9,38.57,11.72,25.51,25.46,50.05,38.74,73.79,4.43,7.93,8.97,16.05,13.42,24.22l-23.27,40.69c-23.54,35.21-36.92,83.29-4.21,113.11,13.38,12.18,30.33,16.78,47.74,12.94,19.33-4.28,36.31-18.8,44.29-37.87,9.95-23.74,3.79-47.33-4.33-69.26-7.76-20.99-17.83-40.86-27.58-59.22l34.7-60.63c6.47-11.31,13.13-22.98,22.45-30.52,5.11-4.13,11.58-7.05,18.17-6.76h.05c6.59-.29,13.06,2.63,18.17,6.76,9.31,7.54,15.98,19.21,22.45,30.52l34.7,60.63c-9.75,18.36-19.82,38.23-27.58,59.22-8.12,21.94-14.28,45.53-4.33,69.26,7.98,19.07,24.95,33.59,44.29,37.87,17.41,3.84,34.36-.75,47.74-12.94,32.71-29.82,19.33-77.9-4.21-113.11l-23.27-40.69c4.45-8.17,9-16.29,13.42-24.22,13.28-23.74,27.02-48.27,38.74-73.79,8.17-17.73,16.95-30.33,26.9-38.57l.22-.19c8.39-7.22,22.76-13.25,35.63-6.44,14.76,7.83,14.91,26.14,14.59,31.57-.85,15.08-7.76,30.18-14.45,44.77l-57.08,124.71c-3.28,7.15-.12,15.61,7.03,18.9,7.17,3.28,15.64.12,18.92-7.03l57.08-124.71c7.42-16.22,15.81-34.58,16.98-55.01,1.46-25.54-9.92-47.91-29.72-58.39ZM474.35,415.22c7.25,19.58,10.58,34.49,4.77,48.35-4.38,10.51-13.86,18.75-24.15,21.04-5.72,1.24-14.25,1.22-22.35-6.18-25.63-23.35,5.35-71.18,8.97-76.56l15.1-26.31c6.44,12.77,12.62,26.07,17.66,39.67ZM665.11,478.43c-8.1,7.39-16.63,7.42-22.35,6.18-10.29-2.29-19.77-10.53-24.15-21.04-5.81-13.86-2.48-28.77,4.77-48.35,5.03-13.59,11.21-26.9,17.66-39.67l15.1,26.31c3.62,5.37,34.61,53.21,8.97,76.56Z"/>
  <g>
    <path class="cls-1" d="M135.53,785.45l-51.99-177.84h31.25l35.44,128.44,35.32-128.19,31.24-.25,35.44,128.44,35.32-128.44h31.25l-51.87,177.84h-29.39l-36.43-126.46-36.18,126.46h-29.39Z"/>
    <path class="cls-1" d="M384.75,789.15c-13.5,0-25.36-2.92-35.57-8.77s-18.17-13.96-23.9-24.33c-5.72-10.37-8.58-22.31-8.58-35.81,0-14.57,2.8-27.23,8.4-37.98,5.6-10.74,13.38-19.08,23.34-25.01,9.96-5.93,21.49-8.89,34.58-8.89,13.83,0,25.58,3.23,35.26,9.7,9.67,6.46,16.86,15.58,21.55,27.35,4.69,11.77,6.46,25.65,5.31,41.62h-29.52v-10.87c-.08-14.49-2.63-25.07-7.66-31.74-5.02-6.67-12.93-10-23.71-10-12.19,0-21.24,3.77-27.17,11.3s-8.89,18.55-8.89,33.04c0,13.5,2.96,23.96,8.89,31.37,5.93,7.41,14.57,11.12,25.93,11.12,7.33,0,13.65-1.62,18.96-4.88,5.31-3.25,9.41-7.96,12.29-14.14l29.39,8.89c-5.11,12.02-12.99,21.37-23.65,28.03-10.66,6.67-22.41,10-35.26,10ZM338.8,727.03v-22.48h91.76v22.48h-91.76Z"/>
    <path class="cls-1" d="M475.27,785.45v-181.54h29.76v181.54h-29.76Z"/>
    <path class="cls-1" d="M544.55,785.45v-181.54h29.76v181.54h-29.76Z"/>
    <path class="cls-1" d="M611.12,785.45v-177.84h30.01v84.23h-3.71v93.61h-26.3ZM675.46,789.15c-13.01,0-23.92-3.09-32.73-9.26-8.81-6.17-15.44-14.59-19.88-25.25-4.45-10.66-6.67-22.62-6.67-35.88s2.22-25.44,6.67-36.06c4.45-10.62,10.97-19,19.57-25.13,8.6-6.13,19.25-9.2,31.92-9.2s23.53,3.07,32.79,9.2c9.26,6.13,16.44,14.49,21.55,25.07,5.1,10.58,7.66,22.62,7.66,36.12s-2.51,25.32-7.53,35.94c-5.02,10.62-12.1,19.02-21.24,25.19s-19.84,9.26-32.11,9.26ZM670.89,762.47c7.74,0,14.12-1.93,19.14-5.8,5.02-3.87,8.75-9.12,11.18-15.75,2.43-6.63,3.64-14.02,3.64-22.17s-1.23-15.42-3.7-22.04c-2.47-6.63-6.3-11.9-11.49-15.81-5.19-3.91-11.77-5.87-19.76-5.87s-13.75,1.83-18.52,5.5c-4.78,3.67-8.3,8.77-10.56,15.31-2.26,6.54-3.4,14.18-3.4,22.91s1.13,16.26,3.4,22.85c2.26,6.59,5.85,11.71,10.75,15.38,4.9,3.66,11.34,5.5,19.33,5.5Z"/>
    <path class="cls-1" d="M772.03,844.72l25.69-70.52.49,20.75-58.17-142.89h31l41.25,105.71h-7.9l40.14-105.71h29.76l-74.35,192.66h-27.91Z"/>
    <path class="cls-1" d="M892.44,785.45v-133.38h26.55v41.37h3.58v92h-30.13ZM984.94,785.45v-64.22c0-4.2-.29-8.85-.86-13.96-.58-5.1-1.91-10.02-4.01-14.76-2.1-4.73-5.23-8.62-9.39-11.67-4.16-3.04-9.78-4.57-16.86-4.57-3.79,0-7.53.62-11.24,1.85-3.71,1.24-7.06,3.36-10.07,6.36-3.01,3.01-5.41,7.12-7.22,12.35-1.81,5.23-2.72,11.92-2.72,20.07l-17.66-7.53c0-11.36,2.2-21.65,6.61-30.87,4.4-9.22,10.89-16.57,19.45-22.04,8.56-5.47,19.1-8.21,31.62-8.21,9.88,0,18.03,1.65,24.45,4.94,6.42,3.29,11.53,7.49,15.31,12.6,3.79,5.11,6.59,10.54,8.4,16.3,1.81,5.76,2.98,11.22,3.52,16.36.54,5.15.8,9.32.8,12.54v74.47h-30.13Z"/>
  </g>
</svg>