<svg width="80" height="80" viewBox="0 0 80 80" fill="none" xmlns="http://www.w3.org/2000/svg">
<path d="M51.9668 58.6372C49.8708 60.0412 44.3755 62.9082 47.7225 66.4956C49.3575 68.2479 51.1788 69.5012 53.4682 69.5012H60.0002H66.5322C68.8215 69.5012 70.6428 68.2479 72.2778 66.4956C75.6248 62.9082 70.1295 60.0412 68.0335 58.6372C63.1185 55.3449 56.8818 55.3449 51.9668 58.6372Z" stroke="#93531F" stroke-width="5"/>
<path d="M66.6666 41.1667C66.6666 44.8487 63.6819 47.8333 59.9999 47.8333C56.3179 47.8333 53.3333 44.8487 53.3333 41.1667C53.3333 37.4847 56.3179 34.5 59.9999 34.5C63.6819 34.5 66.6666 37.4847 66.6666 41.1667Z" stroke="#93531F" stroke-width="5"/>
<path d="M33.3333 19.5H49.9999M33.3333 9.5H59.9999" stroke="#93531F" stroke-width="5" stroke-linecap="round" stroke-linejoin="round"/>
<path d="M23.3334 31.168V46.1681C23.3334 49.3108 23.3334 50.8821 22.3571 51.8584C21.3808 52.8348 19.8094 52.8348 16.6667 52.8348H13.3334C10.1907 52.8348 8.61938 52.8348 7.64305 51.8584C6.66675 50.8821 6.66675 49.3108 6.66675 46.1681V37.8348C6.66675 34.6921 6.66675 33.1208 7.64305 32.1443C8.61938 31.168 10.1907 31.168 13.3334 31.168H23.3334ZM23.3334 31.168H40.0001" stroke="#93531F" stroke-width="5" stroke-linecap="round" stroke-linejoin="round"/>
<path d="M21.6666 16.1667C21.6666 19.8486 18.6818 22.8333 14.9999 22.8333C11.318 22.8333 8.33325 19.8486 8.33325 16.1667C8.33325 12.4848 11.318 9.5 14.9999 9.5C18.6818 9.5 21.6666 12.4848 21.6666 16.1667Z" stroke="#93531F" stroke-width="5"/>
</svg>
