<svg width="24" height="24" viewBox="0 0 24 24" fill="none" xmlns="http://www.w3.org/2000/svg">
<path d="M17 8.49902V10.999C17 13.7604 14.7614 15.999 12 15.999C9.23858 15.999 7 13.7604 7 10.999V6.99903C7 4.49902 8.5 0.499016 13.5 1.49903" stroke="#3D3D3D" stroke-width="1.5" stroke-linecap="round"/>
<path d="M16.3593 1.04283C16.3687 1.01518 16.4094 1.02048 16.4114 1.04963C16.5204 2.56306 17.522 3.86538 18.9568 4.35903C18.9845 4.36856 18.9792 4.40913 18.95 4.41123C17.4366 4.52015 16.1343 5.52181 15.6406 6.95659C15.6311 6.98424 15.5905 6.97893 15.5884 6.94978C15.4794 5.43635 14.4778 4.13403 13.0431 3.64038C13.0154 3.63085 13.0207 3.59028 13.0499 3.58818C14.5633 3.47927 15.8656 2.4776 16.3593 1.04283Z" stroke="#3D3D3D" stroke-width="1.5" stroke-linecap="round" stroke-linejoin="round"/>
<path d="M20 11C20 15.4183 16.4183 19 12 19M12 19C7.58172 19 4 15.4183 4 11M12 19V22M12 22H15M12 22H9" stroke="#3D3D3D" stroke-width="1.5" stroke-linecap="round"/>
</svg>
