<svg width="24" height="25" viewBox="0 0 24 25" fill="none" xmlns="http://www.w3.org/2000/svg">
<path d="M9.02441 22.1744C9.81404 22.7912 10.8568 23.1662 11.9999 23.1662C13.143 23.1662 14.1858 22.7912 14.9754 22.1744" stroke="#3D3D3D" stroke-width="2" stroke-linecap="round" stroke-linejoin="round"/>
<path d="M12.0003 2.83398C12.3805 2.83398 12.7545 2.861 13.1194 2.91406C13.042 3.26375 13.0003 3.627 13.0003 4C13.0003 6.76142 15.2389 9 18.0003 9C18.4688 8.99999 18.9218 8.93398 19.3519 8.81348C19.424 9.21656 19.4642 9.63067 19.4642 10.0537C19.4643 11.0854 19.5259 12.0552 20.1478 12.9443C20.6226 13.6149 21.2632 14.3023 21.3929 15.127C21.6035 16.4687 20.6615 17.4001 19.5071 17.8643C15.0809 19.644 8.92071 19.644 4.49444 17.8643C3.34009 17.4001 2.39713 16.4687 2.60772 15.127C2.73734 14.3023 3.37895 13.6149 3.85381 12.9443C4.47563 12.0552 4.5373 11.0854 4.5374 10.0537C4.5374 6.06639 7.87858 2.83419 12.0003 2.83398Z" fill="#3D3D3D"/>
<circle cx="18" cy="4" r="4" fill="#E63D75"/>
</svg>
