<svg width="24" height="25" viewBox="0 0 24 25" fill="none" xmlns="http://www.w3.org/2000/svg">
<path d="M9.02454 22.1738C9.81416 22.7906 10.8569 23.1657 12 23.1657C13.1431 23.1657 14.1859 22.7906 14.9755 22.1738" stroke="#2E8BC9" stroke-width="2" stroke-linecap="round" stroke-linejoin="round"/>
<path d="M12.0007 2.83398C12.3807 2.834 12.7541 2.86104 13.1189 2.91406C13.0414 3.26373 12.9997 3.62703 12.9997 4C12.9997 6.76135 15.2384 8.99988 17.9997 9C18.4682 9 18.9213 8.93394 19.3513 8.81348C19.4234 9.21657 19.4636 9.63066 19.4636 10.0537C19.4637 11.0854 19.5254 12.0553 20.1472 12.9443C20.6221 13.6149 21.2636 14.3023 21.3933 15.127C21.6038 16.4687 20.661 17.4001 19.5066 17.8643C15.0803 19.644 8.92013 19.644 4.49386 17.8643C3.3396 17.4001 2.39749 16.4686 2.60812 15.127C2.73774 14.3023 3.37838 13.6149 3.85323 12.9443C4.47514 12.0552 4.53673 11.0854 4.53683 10.0537C4.53683 6.06627 7.8788 2.83398 12.0007 2.83398Z" fill="#2E8BC9"/>
<circle cx="18" cy="4" r="4" fill="#E63D75"/>
</svg>
