<svg width="20" height="20" viewBox="0 0 20 20" fill="none" xmlns="http://www.w3.org/2000/svg">
<path d="M7.82974 3.75H6.96169C4.50646 3.75 3.27884 3.75 2.5161 4.48223C1.75336 5.21447 1.75336 6.39297 1.75336 8.75V12.0833C1.75336 14.4403 1.75336 15.6188 2.5161 16.3511C3.27884 17.0833 4.50646 17.0833 6.96169 17.0833H10.4672C12.9225 17.0833 14.15 17.0833 14.9128 16.3511C15.407 15.8767 15.581 15.2149 15.6422 14.1667" stroke="#3D3D3D" stroke-width="1.25" stroke-linecap="round" stroke-linejoin="round"/>
<path d="M13.4723 5.83268V3.21064C13.4723 3.04792 13.6097 2.91602 13.7792 2.91602C13.8605 2.91602 13.9386 2.94706 13.9962 3.00231L17.9396 6.78806C18.1362 6.9767 18.2465 7.23257 18.2465 7.49935C18.2465 7.76613 18.1362 8.022 17.9396 8.21064L13.9962 11.9963C13.9386 12.0517 13.8605 12.0827 13.7792 12.0827C13.6097 12.0827 13.4723 11.9508 13.4723 11.788V9.16602H10.9297C7.39583 9.16602 6.09375 12.0827 6.09375 12.0827V9.99935C6.09375 7.69817 8.03696 5.83268 10.434 5.83268H13.4723Z" stroke="#3D3D3D" stroke-width="1.25" stroke-linecap="round" stroke-linejoin="round"/>
</svg>
