<svg width="24" height="24" viewBox="0 0 24 24" fill="none" xmlns="http://www.w3.org/2000/svg">
<path d="M5.04083 18.16C5.24323 19.6633 6.48832 20.841 8.0035 20.9106C9.27845 20.9692 10.5736 20.9998 11.9998 20.9998C13.426 20.9998 14.7211 20.9692 15.9961 20.9106C17.5113 20.841 18.7564 19.6633 18.9588 18.16C19.0909 17.179 19.1998 16.1736 19.1998 15.1498C19.1998 14.126 19.0909 13.1206 18.9588 12.1396C18.7564 10.6363 17.5113 9.45865 15.9961 9.38899C14.7211 9.33038 13.426 9.2998 11.9998 9.2998C10.5736 9.2998 9.27845 9.33038 8.0035 9.38899C6.48832 9.45865 5.24323 10.6363 5.04083 12.1396C4.90874 13.1206 4.7998 14.126 4.7998 15.1498C4.7998 16.1736 4.90874 17.179 5.04083 18.16Z" stroke="#3D3D3D" stroke-width="1.35"/>
<path d="M7.9502 9.3V7.05C7.9502 4.81325 9.76344 3 12.0002 3C14.237 3 16.0502 4.81325 16.0502 7.05V9.3" stroke="#3D3D3D" stroke-width="1.35" stroke-linecap="round" stroke-linejoin="round"/>
<path d="M11.9961 15.1499H12.0051" stroke="#3D3D3D" stroke-width="1.8" stroke-linecap="round" stroke-linejoin="round"/>
</svg>
