<svg width="16" height="16" viewBox="0 0 16 16" fill="none" xmlns="http://www.w3.org/2000/svg">
<path d="M14.3626 7.36203C14.5653 7.64623 14.6666 7.78836 14.6666 7.9987C14.6666 8.20903 14.5653 8.35116 14.3626 8.63536C13.4519 9.91243 11.1261 12.6654 7.99992 12.6654C4.87377 12.6654 2.54799 9.91243 1.63728 8.63536C1.43459 8.35116 1.33325 8.20903 1.33325 7.9987C1.33325 7.78836 1.43459 7.64623 1.63728 7.36203C2.54799 6.08499 4.87377 3.33203 7.99992 3.33203C11.1261 3.33203 13.4519 6.08499 14.3626 7.36203Z" stroke="#3D3D3D"/>
<path d="M10 8C10 6.8954 9.1046 6 8 6C6.8954 6 6 6.8954 6 8C6 9.1046 6.8954 10 8 10C9.1046 10 10 9.1046 10 8Z" stroke="#3D3D3D"/>
</svg>
