<svg width="24" height="24" viewBox="0 0 24 24" fill="none" xmlns="http://www.w3.org/2000/svg">
<path d="M18.9106 14.9067C18.6167 15.1985 18.6149 15.6734 18.9067 15.9674C19.1985 16.2613 19.6734 16.2631 19.9674 15.9713L19.439 15.439L18.9106 14.9067ZM21.544 12.955L22.1546 13.3905L22.1546 13.3905L21.544 12.955ZM21.544 11.045L22.1546 10.6095L22.1546 10.6095L21.544 11.045ZM9.18654 4.70497C8.79259 4.83295 8.57699 5.25605 8.70497 5.65C8.83295 6.04395 9.25605 6.25955 9.65 6.13157L9.41827 5.41827L9.18654 4.70497ZM7.16677 7.36923C7.51019 7.13762 7.60083 6.67148 7.36923 6.32807C7.13762 5.98465 6.67148 5.89401 6.32807 6.12561L6.74742 6.74742L7.16677 7.36923ZM2.45604 11.045L3.06666 11.4805L3.06667 11.4805L2.45604 11.045ZM2.45604 12.955L3.06668 12.5195L3.06666 12.5195L2.45604 12.955ZM17.6719 17.8744C18.0154 17.6428 18.106 17.1767 17.8744 16.8333C17.6428 16.4898 17.1767 16.3992 16.8333 16.6308L17.2526 17.2526L17.6719 17.8744ZM10.3882 10.5303C10.6811 10.2375 10.6811 9.76259 10.3882 9.46969C10.0953 9.17678 9.62045 9.17677 9.32754 9.46966L9.85786 10L10.3882 10.5303ZM14.5304 14.6724C14.8232 14.3795 14.8232 13.9046 14.5303 13.6117C14.2374 13.3189 13.7625 13.3189 13.4696 13.6118L14 14.1421L14.5304 14.6724ZM3.53033 2.46967C3.23744 2.17678 2.76256 2.17678 2.46967 2.46967C2.17678 2.76256 2.17678 3.23744 2.46967 3.53033L3 3L3.53033 2.46967ZM20.4697 21.5303C20.7626 21.8232 21.2374 21.8232 21.5303 21.5303C21.8232 21.2374 21.8232 20.7626 21.5303 20.4697L21 21L20.4697 21.5303ZM19.439 15.439L19.9674 15.9713C20.9297 15.016 21.6707 14.0691 22.1546 13.3905L21.544 12.955L20.9334 12.5195C20.4843 13.1491 19.7975 14.0264 18.9106 14.9067L19.439 15.439ZM21.544 12.955L22.1546 13.3905C22.4186 13.0204 22.75 12.602 22.75 12H22H21.25C21.25 12.0161 21.2517 12.0301 21.2207 12.0897C21.1744 12.1787 21.0967 12.2906 20.9334 12.5195L21.544 12.955ZM22 12H22.75C22.75 11.398 22.4186 10.9796 22.1546 10.6095L21.544 11.045L20.9334 11.4805C21.0967 11.7094 21.1744 11.8213 21.2207 11.9103C21.2517 11.9699 21.25 11.9839 21.25 12H22ZM21.544 11.045L22.1546 10.6095C21.4488 9.61974 20.1869 8.04576 18.4797 6.71298C16.774 5.38141 14.5706 4.25 12 4.25V5V5.75C14.1186 5.75 16.0041 6.68331 17.5566 7.89535C19.1076 9.10618 20.2731 10.5547 20.9334 11.4805L21.544 11.045ZM12 5V4.25C11.0058 4.25 10.0648 4.41964 9.18654 4.70497L9.41827 5.41827L9.65 6.13157C10.394 5.88988 11.1786 5.75 12 5.75V5ZM6.74742 6.74742L6.32807 6.12561C4.20574 7.55694 2.65549 9.47359 1.84541 10.6095L2.45604 11.045L3.06667 11.4805C3.82881 10.4117 5.25662 8.65746 7.16677 7.36923L6.74742 6.74742ZM2.45604 11.045L1.84542 10.6095C1.58148 10.9796 1.25 11.3979 1.25 12H2H2.75C2.75 11.984 2.74828 11.9699 2.77928 11.9103C2.82562 11.8213 2.90335 11.7095 3.06666 11.4805L2.45604 11.045ZM2 12H1.25C1.25 12.6021 1.58148 13.0204 1.84542 13.3905L2.45604 12.955L3.06666 12.5195C2.90335 12.2905 2.82562 12.1787 2.77928 12.0897C2.74828 12.0301 2.75 12.016 2.75 12H2ZM2.45604 12.955L1.8454 13.3905C2.55126 14.3803 3.81313 15.9543 5.52031 17.287C7.22596 18.6186 9.42944 19.75 12 19.75V19V18.25C9.88134 18.25 7.99587 17.3167 6.44336 16.1047C4.89238 14.8938 3.72688 13.4453 3.06668 12.5195L2.45604 12.955ZM12 19V19.75C14.183 19.75 16.1015 18.9334 17.6719 17.8744L17.2526 17.2526L16.8333 16.6308C15.4287 17.578 13.7986 18.25 12 18.25V19ZM9.85786 10L9.32754 9.46966C8.66258 10.1346 8.25 11.0554 8.25 12.0711H9H9.75C9.75 11.4692 9.99308 10.9254 10.3882 10.5303L9.85786 10ZM9 12.0711H8.25C8.25 14.1029 9.89709 15.75 11.9289 15.75V15V14.25C10.7255 14.25 9.75 13.2745 9.75 12.0711H9ZM11.9289 15V15.75C12.9446 15.75 13.8654 15.3375 14.5304 14.6724L14 14.1421L13.4696 13.6118C13.0746 14.0069 12.5308 14.25 11.9289 14.25V15ZM3 3L2.46967 3.53033L20.4697 21.5303L21 21L21.5303 20.4697L3.53033 2.46967L3 3Z" fill="#BDBDBD"/>
</svg>
